<mxfile host="Electron" modified="2024-07-01T08:21:40.873Z" agent="Mozilla/5.0 (Windows NT 10.0; Win64; x64) AppleWebKit/537.36 (KHTML, like Gecko) draw.io/24.6.1 Chrome/124.0.6367.207 Electron/30.0.6 Safari/537.36" etag="hbF31MwD_Ah8FZF93Q-Z" version="24.6.1" type="device">
  <diagram name="第 1 页" id="dMCOC_n7HUzunSk3NUOg">
    <mxGraphModel dx="1430" dy="858" grid="1" gridSize="10" guides="1" tooltips="1" connect="1" arrows="1" fold="1" page="1" pageScale="1" pageWidth="1169" pageHeight="827" math="0" shadow="0">
      <root>
        <mxCell id="0" />
        <mxCell id="1" parent="0" />
        <mxCell id="BAHAFE7cuikxRiv91rs9-1" value="" style="rounded=0;whiteSpace=wrap;html=1;container=1;recursiveResize=0;" vertex="1" parent="1">
          <mxGeometry x="240" y="180" width="571" height="260" as="geometry" />
        </mxCell>
        <mxCell id="BAHAFE7cuikxRiv91rs9-2" value="" style="verticalLabelPosition=bottom;shadow=0;dashed=0;align=center;html=1;verticalAlign=top;shape=mxgraph.electrical.logic_gates.d_type_flip-flop;" vertex="1" parent="BAHAFE7cuikxRiv91rs9-1">
          <mxGeometry x="51" y="110" width="100" height="80" as="geometry" />
        </mxCell>
        <mxCell id="BAHAFE7cuikxRiv91rs9-5" style="edgeStyle=orthogonalEdgeStyle;rounded=0;orthogonalLoop=1;jettySize=auto;html=1;exitX=1;exitY=0.25;exitDx=0;exitDy=0;exitPerimeter=0;entryX=0;entryY=0.5;entryDx=0;entryDy=0;" edge="1" parent="BAHAFE7cuikxRiv91rs9-1" source="BAHAFE7cuikxRiv91rs9-3">
          <mxGeometry relative="1" as="geometry">
            <mxPoint x="391" y="130" as="targetPoint" />
          </mxGeometry>
        </mxCell>
        <mxCell id="BAHAFE7cuikxRiv91rs9-3" value="" style="verticalLabelPosition=bottom;shadow=0;dashed=0;align=center;html=1;verticalAlign=top;shape=mxgraph.electrical.logic_gates.d_type_flip-flop;" vertex="1" parent="BAHAFE7cuikxRiv91rs9-1">
          <mxGeometry x="240" y="110" width="100" height="80" as="geometry" />
        </mxCell>
        <mxCell id="BAHAFE7cuikxRiv91rs9-6" value="" style="verticalLabelPosition=bottom;shadow=0;dashed=0;align=center;html=1;verticalAlign=top;shape=mxgraph.electrical.logic_gates.logic_gate;operation=and;aspect=fixed;" vertex="1" parent="BAHAFE7cuikxRiv91rs9-1">
          <mxGeometry x="490" y="100" width="50" height="30" as="geometry" />
        </mxCell>
        <mxCell id="BAHAFE7cuikxRiv91rs9-8" style="edgeStyle=orthogonalEdgeStyle;rounded=0;orthogonalLoop=1;jettySize=auto;html=1;exitX=1;exitY=0.25;exitDx=0;exitDy=0;exitPerimeter=0;entryX=0;entryY=0.25;entryDx=0;entryDy=0;entryPerimeter=0;" edge="1" parent="BAHAFE7cuikxRiv91rs9-1" source="BAHAFE7cuikxRiv91rs9-2" target="BAHAFE7cuikxRiv91rs9-3">
          <mxGeometry relative="1" as="geometry" />
        </mxCell>
        <mxCell id="BAHAFE7cuikxRiv91rs9-9" style="edgeStyle=orthogonalEdgeStyle;rounded=0;orthogonalLoop=1;jettySize=auto;html=1;exitX=1;exitY=0.5;exitDx=0;exitDy=0;entryX=0;entryY=0.75;entryDx=0;entryDy=0;entryPerimeter=0;" edge="1" parent="BAHAFE7cuikxRiv91rs9-1" target="BAHAFE7cuikxRiv91rs9-6">
          <mxGeometry relative="1" as="geometry">
            <mxPoint x="441" y="130" as="sourcePoint" />
          </mxGeometry>
        </mxCell>
        <mxCell id="BAHAFE7cuikxRiv91rs9-10" style="edgeStyle=orthogonalEdgeStyle;rounded=0;orthogonalLoop=1;jettySize=auto;html=1;exitX=1;exitY=0.25;exitDx=0;exitDy=0;exitPerimeter=0;entryX=0;entryY=0.25;entryDx=0;entryDy=0;entryPerimeter=0;" edge="1" parent="BAHAFE7cuikxRiv91rs9-1" source="BAHAFE7cuikxRiv91rs9-2" target="BAHAFE7cuikxRiv91rs9-6">
          <mxGeometry relative="1" as="geometry">
            <Array as="points">
              <mxPoint x="190" y="100" />
              <mxPoint x="470" y="100" />
              <mxPoint x="470" y="107" />
            </Array>
          </mxGeometry>
        </mxCell>
        <mxCell id="BAHAFE7cuikxRiv91rs9-20" value="&lt;font style=&quot;font-size: 16px;&quot;&gt;le_w_int: Leading_edge_clipper&lt;/font&gt;" style="text;html=1;align=center;verticalAlign=middle;whiteSpace=wrap;rounded=0;" vertex="1" parent="BAHAFE7cuikxRiv91rs9-1">
          <mxGeometry x="20" y="10" width="250" height="30" as="geometry" />
        </mxCell>
        <mxCell id="BAHAFE7cuikxRiv91rs9-21" value="" style="verticalLabelPosition=bottom;shadow=0;dashed=0;align=center;html=1;verticalAlign=top;shape=mxgraph.electrical.logic_gates.inverter_2;aspect=fixed;" vertex="1" parent="BAHAFE7cuikxRiv91rs9-1">
          <mxGeometry x="390" y="115" width="50" height="30" as="geometry" />
        </mxCell>
        <mxCell id="BAHAFE7cuikxRiv91rs9-23" value="board_write" style="text;html=1;align=center;verticalAlign=middle;whiteSpace=wrap;rounded=0;fillColor=#f5f5f5;fontColor=#333333;strokeColor=#666666;" vertex="1" parent="1">
          <mxGeometry x="120" y="295" width="80" height="30" as="geometry" />
        </mxCell>
        <mxCell id="BAHAFE7cuikxRiv91rs9-24" style="edgeStyle=orthogonalEdgeStyle;rounded=0;orthogonalLoop=1;jettySize=auto;html=1;exitX=1;exitY=0.5;exitDx=0;exitDy=0;entryX=0;entryY=0.25;entryDx=0;entryDy=0;entryPerimeter=0;" edge="1" parent="1" source="BAHAFE7cuikxRiv91rs9-23" target="BAHAFE7cuikxRiv91rs9-2">
          <mxGeometry relative="1" as="geometry" />
        </mxCell>
        <mxCell id="BAHAFE7cuikxRiv91rs9-42" style="edgeStyle=orthogonalEdgeStyle;rounded=0;orthogonalLoop=1;jettySize=auto;html=1;exitX=1;exitY=0.5;exitDx=0;exitDy=0;" edge="1" parent="1" source="BAHAFE7cuikxRiv91rs9-25" target="BAHAFE7cuikxRiv91rs9-38">
          <mxGeometry relative="1" as="geometry" />
        </mxCell>
        <mxCell id="BAHAFE7cuikxRiv91rs9-25" value="le_write_int" style="text;html=1;align=center;verticalAlign=middle;whiteSpace=wrap;rounded=0;fillColor=#f5f5f5;fontColor=#333333;strokeColor=#666666;" vertex="1" parent="1">
          <mxGeometry x="880" y="280" width="80" height="30" as="geometry" />
        </mxCell>
        <mxCell id="BAHAFE7cuikxRiv91rs9-27" style="edgeStyle=orthogonalEdgeStyle;rounded=0;orthogonalLoop=1;jettySize=auto;html=1;exitX=1;exitY=0.5;exitDx=0;exitDy=0;exitPerimeter=0;" edge="1" parent="1" source="BAHAFE7cuikxRiv91rs9-6" target="BAHAFE7cuikxRiv91rs9-25">
          <mxGeometry relative="1" as="geometry" />
        </mxCell>
        <mxCell id="BAHAFE7cuikxRiv91rs9-28" value="board_read" style="text;html=1;align=center;verticalAlign=middle;whiteSpace=wrap;rounded=0;fillColor=#f5f5f5;fontColor=#333333;strokeColor=#666666;" vertex="1" parent="1">
          <mxGeometry x="120" y="525" width="80" height="30" as="geometry" />
        </mxCell>
        <mxCell id="BAHAFE7cuikxRiv91rs9-34" style="edgeStyle=orthogonalEdgeStyle;rounded=0;orthogonalLoop=1;jettySize=auto;html=1;exitX=1;exitY=0.25;exitDx=0;exitDy=0;exitPerimeter=0;entryX=0;entryY=0.5;entryDx=0;entryDy=0;" edge="1" parent="1" source="BAHAFE7cuikxRiv91rs9-29" target="BAHAFE7cuikxRiv91rs9-31">
          <mxGeometry relative="1" as="geometry" />
        </mxCell>
        <mxCell id="BAHAFE7cuikxRiv91rs9-29" value="" style="verticalLabelPosition=bottom;shadow=0;dashed=0;align=center;html=1;verticalAlign=top;shape=mxgraph.electrical.logic_gates.d_type_flip-flop;" vertex="1" parent="1">
          <mxGeometry x="250" y="520" width="100" height="80" as="geometry" />
        </mxCell>
        <mxCell id="BAHAFE7cuikxRiv91rs9-30" style="edgeStyle=orthogonalEdgeStyle;rounded=0;orthogonalLoop=1;jettySize=auto;html=1;exitX=1;exitY=0.5;exitDx=0;exitDy=0;entryX=0;entryY=0.25;entryDx=0;entryDy=0;entryPerimeter=0;" edge="1" parent="1" source="BAHAFE7cuikxRiv91rs9-28" target="BAHAFE7cuikxRiv91rs9-29">
          <mxGeometry relative="1" as="geometry" />
        </mxCell>
        <mxCell id="BAHAFE7cuikxRiv91rs9-31" value="board_read_pre_sync" style="text;html=1;align=center;verticalAlign=middle;whiteSpace=wrap;rounded=0;fillColor=#f5f5f5;fontColor=#333333;strokeColor=#666666;" vertex="1" parent="1">
          <mxGeometry x="400" y="525" width="160" height="30" as="geometry" />
        </mxCell>
        <mxCell id="BAHAFE7cuikxRiv91rs9-36" style="edgeStyle=orthogonalEdgeStyle;rounded=0;orthogonalLoop=1;jettySize=auto;html=1;exitX=1;exitY=0.25;exitDx=0;exitDy=0;exitPerimeter=0;entryX=0;entryY=0.5;entryDx=0;entryDy=0;" edge="1" parent="1" source="BAHAFE7cuikxRiv91rs9-32" target="BAHAFE7cuikxRiv91rs9-33">
          <mxGeometry relative="1" as="geometry" />
        </mxCell>
        <mxCell id="BAHAFE7cuikxRiv91rs9-32" value="" style="verticalLabelPosition=bottom;shadow=0;dashed=0;align=center;html=1;verticalAlign=top;shape=mxgraph.electrical.logic_gates.d_type_flip-flop;" vertex="1" parent="1">
          <mxGeometry x="610" y="520" width="100" height="80" as="geometry" />
        </mxCell>
        <mxCell id="BAHAFE7cuikxRiv91rs9-43" style="edgeStyle=orthogonalEdgeStyle;rounded=0;orthogonalLoop=1;jettySize=auto;html=1;exitX=1;exitY=0.5;exitDx=0;exitDy=0;" edge="1" parent="1" source="BAHAFE7cuikxRiv91rs9-33" target="BAHAFE7cuikxRiv91rs9-40">
          <mxGeometry relative="1" as="geometry" />
        </mxCell>
        <mxCell id="BAHAFE7cuikxRiv91rs9-33" value="board_read_sync" style="text;html=1;align=center;verticalAlign=middle;whiteSpace=wrap;rounded=0;fillColor=#f5f5f5;fontColor=#333333;strokeColor=#666666;" vertex="1" parent="1">
          <mxGeometry x="800" y="525" width="160" height="30" as="geometry" />
        </mxCell>
        <mxCell id="BAHAFE7cuikxRiv91rs9-35" style="edgeStyle=orthogonalEdgeStyle;rounded=0;orthogonalLoop=1;jettySize=auto;html=1;exitX=1;exitY=0.5;exitDx=0;exitDy=0;entryX=0;entryY=0.25;entryDx=0;entryDy=0;entryPerimeter=0;" edge="1" parent="1" source="BAHAFE7cuikxRiv91rs9-31" target="BAHAFE7cuikxRiv91rs9-32">
          <mxGeometry relative="1" as="geometry" />
        </mxCell>
        <mxCell id="BAHAFE7cuikxRiv91rs9-68" style="edgeStyle=orthogonalEdgeStyle;rounded=0;orthogonalLoop=1;jettySize=auto;html=1;exitX=1;exitY=0.5;exitDx=0;exitDy=0;" edge="1" parent="1" source="BAHAFE7cuikxRiv91rs9-37" target="BAHAFE7cuikxRiv91rs9-66">
          <mxGeometry relative="1" as="geometry" />
        </mxCell>
        <mxCell id="BAHAFE7cuikxRiv91rs9-37" value="board_address" style="text;html=1;align=center;verticalAlign=middle;whiteSpace=wrap;rounded=0;fillColor=#f5f5f5;fontColor=#333333;strokeColor=#666666;" vertex="1" parent="1">
          <mxGeometry x="530" y="710" width="100" height="30" as="geometry" />
        </mxCell>
        <mxCell id="BAHAFE7cuikxRiv91rs9-38" value="internal_write" style="text;html=1;align=center;verticalAlign=middle;whiteSpace=wrap;rounded=0;fillColor=#f5f5f5;fontColor=#333333;strokeColor=#666666;" vertex="1" parent="1">
          <mxGeometry x="1070" y="280" width="80" height="30" as="geometry" />
        </mxCell>
        <mxCell id="BAHAFE7cuikxRiv91rs9-40" value="internal_read" style="text;html=1;align=center;verticalAlign=middle;whiteSpace=wrap;rounded=0;fillColor=#f5f5f5;fontColor=#333333;strokeColor=#666666;" vertex="1" parent="1">
          <mxGeometry x="1070" y="525" width="80" height="30" as="geometry" />
        </mxCell>
        <mxCell id="BAHAFE7cuikxRiv91rs9-69" style="edgeStyle=orthogonalEdgeStyle;rounded=0;orthogonalLoop=1;jettySize=auto;html=1;exitX=1;exitY=0.5;exitDx=0;exitDy=0;" edge="1" parent="1" source="BAHAFE7cuikxRiv91rs9-44" target="BAHAFE7cuikxRiv91rs9-67">
          <mxGeometry relative="1" as="geometry" />
        </mxCell>
        <mxCell id="BAHAFE7cuikxRiv91rs9-44" value="board_databus" style="text;html=1;align=center;verticalAlign=middle;whiteSpace=wrap;rounded=0;fillColor=#f5f5f5;fontColor=#333333;strokeColor=#666666;" vertex="1" parent="1">
          <mxGeometry x="530" y="740" width="100" height="30" as="geometry" />
        </mxCell>
        <mxCell id="BAHAFE7cuikxRiv91rs9-46" value="internal_write" style="text;html=1;align=center;verticalAlign=middle;whiteSpace=wrap;rounded=0;fillColor=#f5f5f5;fontColor=#333333;strokeColor=#666666;" vertex="1" parent="1">
          <mxGeometry x="530" y="650" width="100" height="30" as="geometry" />
        </mxCell>
        <mxCell id="BAHAFE7cuikxRiv91rs9-47" value="internal_read" style="text;html=1;align=center;verticalAlign=middle;whiteSpace=wrap;rounded=0;fillColor=#f5f5f5;fontColor=#333333;strokeColor=#666666;" vertex="1" parent="1">
          <mxGeometry x="530" y="680" width="100" height="30" as="geometry" />
        </mxCell>
        <mxCell id="BAHAFE7cuikxRiv91rs9-48" value="1" style="text;html=1;align=center;verticalAlign=middle;whiteSpace=wrap;rounded=0;fillColor=#ffe6cc;strokeColor=#d79b00;" vertex="1" parent="1">
          <mxGeometry x="230" y="650" width="100" height="30" as="geometry" />
        </mxCell>
        <mxCell id="BAHAFE7cuikxRiv91rs9-49" value="" style="text;html=1;align=center;verticalAlign=middle;whiteSpace=wrap;rounded=0;fillColor=#ffe6cc;strokeColor=#d79b00;" vertex="1" parent="1">
          <mxGeometry x="230" y="680" width="100" height="30" as="geometry" />
        </mxCell>
        <mxCell id="BAHAFE7cuikxRiv91rs9-50" value="test_register" style="text;html=1;align=center;verticalAlign=middle;whiteSpace=wrap;rounded=0;fillColor=#f5f5f5;fontColor=#333333;strokeColor=#666666;" vertex="1" parent="1">
          <mxGeometry x="530" y="770" width="100" height="30" as="geometry" />
        </mxCell>
        <mxCell id="BAHAFE7cuikxRiv91rs9-51" value="board_databus" style="text;html=1;align=center;verticalAlign=middle;whiteSpace=wrap;rounded=0;fillColor=#ffe6cc;strokeColor=#d79b00;" vertex="1" parent="1">
          <mxGeometry x="230" y="770" width="100" height="30" as="geometry" />
        </mxCell>
        <mxCell id="BAHAFE7cuikxRiv91rs9-52" value="X&quot;0014&quot;" style="text;html=1;align=center;verticalAlign=middle;whiteSpace=wrap;rounded=0;fillColor=#ffe6cc;strokeColor=#d79b00;" vertex="1" parent="1">
          <mxGeometry x="230" y="710" width="100" height="30" as="geometry" />
        </mxCell>
        <mxCell id="BAHAFE7cuikxRiv91rs9-53" value="x" style="text;html=1;align=center;verticalAlign=middle;whiteSpace=wrap;rounded=0;fillColor=#ffe6cc;strokeColor=#d79b00;" vertex="1" parent="1">
          <mxGeometry x="230" y="740" width="100" height="30" as="geometry" />
        </mxCell>
        <mxCell id="BAHAFE7cuikxRiv91rs9-54" value="1" style="text;html=1;align=center;verticalAlign=middle;whiteSpace=wrap;rounded=0;fillColor=#dae8fc;strokeColor=#6c8ebf;" vertex="1" parent="1">
          <mxGeometry x="330" y="680" width="100" height="30" as="geometry" />
        </mxCell>
        <mxCell id="BAHAFE7cuikxRiv91rs9-55" value="0" style="text;html=1;align=center;verticalAlign=middle;whiteSpace=wrap;rounded=0;fillColor=#dae8fc;strokeColor=#6c8ebf;" vertex="1" parent="1">
          <mxGeometry x="330" y="650" width="100" height="30" as="geometry" />
        </mxCell>
        <mxCell id="BAHAFE7cuikxRiv91rs9-56" value="statusregister" style="text;html=1;align=center;verticalAlign=middle;whiteSpace=wrap;rounded=0;fillColor=#dae8fc;strokeColor=#6c8ebf;" vertex="1" parent="1">
          <mxGeometry x="430" y="740" width="100" height="30" as="geometry" />
        </mxCell>
        <mxCell id="BAHAFE7cuikxRiv91rs9-57" value="0" style="text;html=1;align=center;verticalAlign=middle;whiteSpace=wrap;rounded=0;fillColor=#dae8fc;strokeColor=#6c8ebf;" vertex="1" parent="1">
          <mxGeometry x="430" y="650" width="100" height="30" as="geometry" />
        </mxCell>
        <mxCell id="BAHAFE7cuikxRiv91rs9-59" value="1" style="text;html=1;align=center;verticalAlign=middle;whiteSpace=wrap;rounded=0;fillColor=#dae8fc;strokeColor=#6c8ebf;" vertex="1" parent="1">
          <mxGeometry x="430" y="680" width="100" height="30" as="geometry" />
        </mxCell>
        <mxCell id="BAHAFE7cuikxRiv91rs9-61" value="test_register" style="text;html=1;align=center;verticalAlign=middle;whiteSpace=wrap;rounded=0;fillColor=#dae8fc;strokeColor=#6c8ebf;" vertex="1" parent="1">
          <mxGeometry x="330" y="740" width="100" height="30" as="geometry" />
        </mxCell>
        <mxCell id="BAHAFE7cuikxRiv91rs9-62" value="X&quot;0010&quot;" style="text;html=1;align=center;verticalAlign=middle;whiteSpace=wrap;rounded=0;fillColor=#dae8fc;strokeColor=#6c8ebf;" vertex="1" parent="1">
          <mxGeometry x="430" y="710" width="100" height="30" as="geometry" />
        </mxCell>
        <mxCell id="BAHAFE7cuikxRiv91rs9-63" value="X&quot;0014&quot;" style="text;html=1;align=center;verticalAlign=middle;whiteSpace=wrap;rounded=0;fillColor=#dae8fc;strokeColor=#6c8ebf;" vertex="1" parent="1">
          <mxGeometry x="330" y="710" width="100" height="30" as="geometry" />
        </mxCell>
        <mxCell id="BAHAFE7cuikxRiv91rs9-64" value="" style="text;html=1;align=center;verticalAlign=middle;whiteSpace=wrap;rounded=0;fillColor=#dae8fc;strokeColor=#6c8ebf;" vertex="1" parent="1">
          <mxGeometry x="330" y="770" width="100" height="30" as="geometry" />
        </mxCell>
        <mxCell id="BAHAFE7cuikxRiv91rs9-65" value="" style="text;html=1;align=center;verticalAlign=middle;whiteSpace=wrap;rounded=0;fillColor=#dae8fc;strokeColor=#6c8ebf;" vertex="1" parent="1">
          <mxGeometry x="430" y="770" width="100" height="30" as="geometry" />
        </mxCell>
        <mxCell id="BAHAFE7cuikxRiv91rs9-66" value="internal_address" style="text;html=1;align=center;verticalAlign=middle;whiteSpace=wrap;rounded=0;fillColor=#f5f5f5;fontColor=#333333;strokeColor=#666666;" vertex="1" parent="1">
          <mxGeometry x="1050" y="710" width="100" height="30" as="geometry" />
        </mxCell>
        <mxCell id="BAHAFE7cuikxRiv91rs9-67" value="internal_databus" style="text;html=1;align=center;verticalAlign=middle;whiteSpace=wrap;rounded=0;fillColor=#f5f5f5;fontColor=#333333;strokeColor=#666666;" vertex="1" parent="1">
          <mxGeometry x="1050" y="740" width="100" height="30" as="geometry" />
        </mxCell>
      </root>
    </mxGraphModel>
  </diagram>
</mxfile>
